# xmcd
#
# Track frame offsets: 
#        150
#        11388
#        32463
#        58863
#        81033
#        101658
#        127638
#        157038
#        185838
#        213513
#
# Disc length: 3030 seconds
#
# Revision: 0
# Processed by: cddbd v1.5.2PL0 Copyright (c) Steve Scherf et al.
# Submitted via: ExactAudioCopy v1.0b3
#
DISCID=7b0bd40a
DTITLE=Four Fried Fish - Love Can Change Everything
DYEAR=2011
DGENRE=Blues
TTITLE0=Something will change tonight
TTITLE1=Call me little sun
TTITLE2=Love can change everything
TTITLE3=Stupid song
TTITLE4=Think twice (nothing is all right)
TTITLE5=Doggy style
TTITLE6=Goin' down
TTITLE7=Tear my mask including "requiem for rorsharch"
TTITLE8=Seventh floor
TTITLE9=Rain in paris roads
EXTD=
EXTT0=
EXTT1=
EXTT2=
EXTT3=
EXTT4=
EXTT5=
EXTT6=
EXTT7=
EXTT8=
EXTT9=
PLAYORDER=
